Coordinates
version=1
nRows=10
nColumns=40
inDegrees=yes

Units are S.I. units (second, meters, Newtons, ...)
If the header above contains a line with 'inDegrees', this indicates whether rotational values are in degrees (yes) or radians (no).

endheader
time	pelvis_tilt	pelvis_list	pelvis_rotation	pelvis_tx	pelvis_ty	pelvis_tz	hip_flexion_r	hip_adduction_r	hip_rotation_r	knee_angle_r	knee_angle_r_beta	ankle_angle_r	subtalar_angle_r	mtp_angle_r	hip_flexion_l	hip_adduction_l	hip_rotation_l	knee_angle_l	knee_angle_l_beta	ankle_angle_l	subtalar_angle_l	mtp_angle_l	lumbar_extension	lumbar_bending	lumbar_rotation	arm_flex_r	arm_add_r	arm_rot_r	elbow_flex_r	pro_sup_r	wrist_flex_r	wrist_dev_r	arm_flex_l	arm_add_l	arm_rot_l	elbow_flex_l	pro_sup_l	wrist_flex_l	wrist_dev_l
      4.05833333	    -13.35670391	     -7.38605190	     -0.00032307	     -0.23373617	      1.12480883	     -0.02501260	     82.02283713	     -6.87857452	     -4.10330344	    118.75529273	      2.07267086	     21.60600300	      2.92484312	      0.00000000	     55.29512432	    -13.04213248	      5.60780037	     53.66765603	      0.93667730	     -9.32796452	      1.21122180	      0.00000000	    -49.37628415	      6.70455172	      6.75449317	     81.07806440	    -11.38923680	     63.33651271	     16.99936428	     64.02420296	      0.00000000	      0.00000000	     74.79552346	     -7.01234380	     27.62194141	     25.87264917	     71.90413913	      0.00000000	      0.00000000
      4.06666667	    -13.47841146	     -7.63184898	     -0.04456032	     -0.23376824	      1.12525860	     -0.02456260	     83.74583817	     -6.93299473	     -4.29951087	    118.99297743	      2.07681924	     21.81945013	      2.90260666	      0.00000000	     53.95316228	    -13.37643850	      5.64092925	     53.08984043	      0.92659251	     -8.84233662	      1.12637274	      0.00000000	    -49.35257127	      6.95070917	      6.96632508	     81.14025066	    -11.36104615	     63.51953540	     17.12100039	     64.08960337	      0.00000000	      0.00000000	     74.78106607	     -7.10108823	     27.59375347	     25.89374019	     71.85661710	      0.00000000	      0.00000000
      4.07500000	    -13.31475630	     -7.71226621	     -0.04572950	     -0.23313099	      1.12597660	     -0.02415594	     84.96008712	     -6.78813666	     -4.23737283	    118.86825845	      2.07464249	     22.14558214	      2.91704091	      0.00000000	     52.64717724	    -13.86831640	      5.11272961	     52.91927297	      0.92361555	     -8.60649447	      1.61901345	      0.00000000	    -49.57337699	      7.03666192	      7.00432889	     81.23578162	    -11.26761591	     63.95101926	     16.92117256	     64.25810873	      0.00000000	      0.00000000	     74.74732398	     -7.19868343	     27.55473281	     25.90394905	     71.80801048	      0.00000000	      0.00000000
      4.08333333	    -13.25604864	     -7.88616436	      0.11562451	     -0.23285550	      1.12659027	     -0.02418179	     86.11896754	     -6.81372575	     -4.33702198	    118.45369005	      2.06740690	     22.30145792	      2.85095569	      0.00000000	     51.59650851	    -14.06067248	      5.08357653	     52.99294261	      0.92490133	     -8.40975734	      1.56228056	      0.00000000	    -49.70433724	      7.34814642	      7.00870492	     81.26410763	    -11.23497193	     63.90003027	     17.05180251	     64.22183355	      0.00000000	      0.00000000	     74.71571534	     -7.28939928	     27.50978460	     25.96192421	     71.71340349	      0.00000000	      0.00000000
      4.09166667	    -13.01250074	     -8.25308694	      0.08615518	     -0.23240838	      1.12778236	     -0.02361435	     86.76639818	     -6.44138369	     -4.78393840	    117.65902194	      2.05353733	     22.41117876	      2.16139457	      0.00000000	     50.56495650	    -14.61701139	      5.13737968	     53.59013163	      0.93532424	     -7.94093638	      1.73730331	      0.00000000	    -50.08507200	      7.61110472	      7.31829471	     81.41409202	    -11.16263757	     64.28402262	     16.85690094	     64.37607135	      0.00000000	      0.00000000	     74.72928252	     -7.34701208	     27.40869731	     25.99193174	     71.75933887	      0.00000000	      0.00000000
      4.10000000	    -13.20678065	     -8.33021362	     -0.01192957	     -0.23282684	      1.12818498	     -0.02340425	     87.99489701	     -6.35179490	     -4.86511275	    116.59992877	      2.03505266	     22.09427945	      2.51506197	      0.00000000	     50.20907467	    -14.80942092	      5.14311514	     54.47028822	      0.95068587	     -7.40056331	      1.41396079	      0.00000000	    -49.99751275	      7.67959551	      7.41159454	     81.48161758	    -11.16567028	     64.13648584	     16.96081508	     64.23957115	      0.00000000	      0.00000000	     74.74189251	     -7.39761070	     27.34244390	     26.03502080	     71.67886391	      0.00000000	      0.00000000
      4.10833333	    -13.17701727	     -8.18573610	      0.13956819	     -0.23310480	      1.12932224	     -0.02395694	     88.56935090	     -6.38431235	     -4.74508183	    115.25266751	      2.01153852	     22.01765909	      2.44168110	      0.00000000	     49.67949346	    -14.63006790	      5.11825876	     55.41094666	      0.96710346	     -7.24797112	      1.39653599	      0.00000000	    -50.15962093	      7.76536823	      7.23359259	     81.60672331	    -11.16779473	     63.97727022	     17.14890010	     64.15421228	      0.00000000	      0.00000000	     74.77193364	     -7.44186373	     27.30049535	     26.14889037	     71.55400096	      0.00000000	      0.00000000
      4.11666667	    -13.15913395	     -8.15274092	      0.05209247	     -0.23330561	      1.12960380	     -0.02360315	     89.09985851	     -5.94707268	     -4.69232623	    113.77864641	      1.98581200	     21.69404602	      2.25766957	      0.00000000	     49.52875242	    -14.56115982	      5.46201072	     57.28308004	      0.99977835	     -6.17117288	      0.70605207	      0.00000000	    -50.23383567	      7.68946765	      7.18629184	     81.65867774	    -11.05906354	     63.91753437	     17.19390244	     64.11737763	      0.00000000	      0.00000000	     74.85410434	     -7.54778084	     27.23039688	     26.09610072	     71.46061192	      0.00000000	      0.00000000
      4.12500000	    -13.44788230	     -8.35184055	     -0.05080172	     -0.23395421	      1.12970686	     -0.02324515	     89.57460925	     -5.51784564	     -5.00255076	    111.85382497	      1.95221753	     21.11899327	      1.85455832	      0.00000000	     50.03830015	    -14.75194415	      5.80631611	     59.30171122	      1.03501011	     -5.03619516	     -0.35805118	      0.00000000	    -50.04009390	      7.81735592	      7.44364791	     81.70165868	    -11.11665939	     63.75137478	     17.25607673	     63.99275325	      0.00000000	      0.00000000	     74.89081657	     -7.48192825	     27.23149714	     26.02964438	     71.10109201	      0.00000000	      0.00000000
      4.13333333	    -13.78584990	     -8.93943825	      0.11283247	     -0.23488970	      1.12984054	     -0.02297077	     89.69866148	     -5.21005044	     -5.73766946	    109.59881091	      1.91286011	     20.27892527	      0.72208912	      0.00000000	     51.12755885	    -15.02949890	      6.83409115	     61.65359646	      1.07605825	     -4.75438467	     -0.72482641	      0.00000000	    -49.83942812	      8.42980718	      7.73049563	     81.95068448	    -11.02391471	     64.56827309	     16.87586151	     64.38425840	      0.00000000	      0.00000000	     74.85979798	     -7.54361374	     27.00509415	     26.19348625	     71.36005986	      0.00000000	      0.00000000
